# xmcd CD database file
#
# Track frame offsets:
#	200
#	18650
#	32947
#	49605
#	57482
#	74355
#	93935
#	110055
#	126250
#	140525
#	157230
#	175657
#
# Disc length: 2519 seconds
#
# Revision: 1
# Processed by: cddbd v1.5.2PL0 Copyright (c) Steve Scherf et al.
# Submitted via: CDex 1.70beta2
#
DISCID=b009d50c
DTITLE=Sally Harmon - Brava!
DYEAR=1991
DGENRE=New Age
TTITLE0=Windmills of Your Mind
TTITLE1=Wind Beneath My Wings
TTITLE2=All I Ask of You
TTITLE3=Angel of Music
TTITLE4=The Music of the Night
TTITLE5=The Summer Knows
TTITLE6=I Dreamed a Dream
TTITLE7=Come to Me
TTITLE8=Somewhere Out There
TTITLE9=Lara's Theme
TTITLE10=El Condor Pasa
TTITLE11=Scarborough Fair
EXTD=YEAR: 1991
EXTT0=
EXTT1=
EXTT2=
EXTT3=
EXTT4=
EXTT5=
EXTT6=
EXTT7=
EXTT8=
EXTT9=
EXTT10=
EXTT11=
PLAYORDER=
